<svg xmlns="http://www.w3.org/2000/svg" version="1.1" xmlns:xlink="http://www.w3.org/1999/xlink" xmlns:svgjs="http://svgjs.dev/svgjs" width="1000" height="804" viewBox="0 0 1000 804"><g transform="matrix(1,0,0,1,0.8024654766081767,0.32550830212363735)"><svg viewBox="0 0 307 247" data-background-color="#ffffff" preserveAspectRatio="xMidYMid meet" height="804" width="1000" xmlns="http://www.w3.org/2000/svg" xmlns:xlink="http://www.w3.org/1999/xlink"><g id="tight-bounds" transform="matrix(1,0,0,1,-0.2463568890883323,-0.1000006848563828)"><svg viewBox="0 0 307.4926997132358 247.2" height="247.2" width="307.4926997132358"><g><svg viewBox="0 0 395.52 317.9670414653146" height="247.2" width="307.4926997132358"><g transform="matrix(1,0,0,1,0,196.51638783061696)"><svg viewBox="0 0 395.52 121.45065363469762" height="121.45065363469762" width="395.52"><g id="textblocktransform"><svg viewBox="0 0 395.52 121.45065363469762" height="121.45065363469762" width="395.52" id="textblock"><g><svg viewBox="0 0 395.52 121.45065363469762" height="121.45065363469762" width="395.52"><g transform="matrix(1,0,0,1,0,0)"><svg width="395.52" viewBox="-1.5099999904632568 -57.7599983215332 239.76998901367188 73.62999725341797" height="121.45065363469762" data-palette-color="#31c48d"><path d="M38.43-49.02L38.43-49.02Q37.74-48.05 36.99-47.19 36.23-46.34 35.11-45.85L35.11-45.85Q34.52-42.48 34.16-39.06 33.79-35.64 33.37-32.23 32.96-28.81 32.45-25.42 31.93-22.02 31.05-18.7L31.05-18.7 31.1-18.12Q31.2-17.14 30.86-16.26 30.52-15.38 30.57-14.36L30.57-14.36Q29.88-12.65 29.39-10.57 28.91-8.5 28.81-6.64L28.81-6.64Q28.32-5.81 28-4.83 27.69-3.86 27.37-2.86 27.05-1.86 26.66-0.95 26.27-0.05 25.63 0.68L25.63 0.68Q25.49 1.81 25.07 2.81 24.66 3.81 24.15 4.79 23.63 5.76 23.17 6.71 22.71 7.67 22.51 8.74L22.51 8.74Q21.68 10.01 20.85 11.21 20.02 12.4 19.34 13.72L19.34 13.72Q18.7 14.01 18.24 14.38 17.77 14.75 17.33 15.06 16.89 15.38 16.33 15.63 15.77 15.87 14.99 15.87L14.99 15.87Q14.79 15.87 14.62 15.84 14.45 15.82 14.26 15.82L14.26 15.82Q13.57 15.28 12.89 14.77 12.21 14.26 11.43 13.87L11.43 13.87Q11.43 13.57 11.35 13.38 11.28 13.18 11.23 12.99 11.18 12.79 11.18 12.6 11.18 12.4 11.28 12.11L11.28 12.11Q10.84 11.82 10.28 11.06 9.72 10.3 9.72 9.77L9.72 9.77Q9.72 9.28 10.06 9.28L10.06 9.28Q9.96 8.79 9.74 8.33 9.52 7.86 9.52 7.37L9.52 7.37Q9.52 7.03 9.72 6.64L9.72 6.64Q9.18 5.37 8.74 4.03 8.3 2.69 8.15 1.27L8.15 1.27Q7.67 0.63 7.4-0.22 7.13-1.07 6.98-2 6.84-2.93 6.74-3.83 6.64-4.74 6.49-5.52L6.49-5.52Q6.45-5.81 6.25-6.47 6.05-7.13 6.05-7.37L6.05-7.37Q6.05-7.67 6.18-7.81 6.3-7.96 6.4-8.2L6.4-8.2Q5.81-10.55 5.44-12.94 5.08-15.33 4.76-17.72 4.44-20.12 4.03-22.49 3.61-24.85 2.88-27.15L2.88-27.15 2.88-27.59Q2.88-29.15 1.66-30.08L1.66-30.08Q1.9-30.81 1.9-31.3L1.9-31.3Q1.9-31.93 1.73-32.52 1.56-33.11 1.37-33.69 1.17-34.28 1.1-34.86 1.03-35.45 1.17-36.04L1.17-36.04Q0.63-36.62 0.29-37.3-0.05-37.99-0.59-38.48L-0.59-38.48-0.63-38.77Q-0.63-39.01-0.51-39.21-0.39-39.4-0.39-39.65L-0.39-39.65Q-0.39-39.99-0.56-40.23-0.73-40.48-0.95-40.67-1.17-40.87-1.34-41.06-1.51-41.26-1.51-41.5L-1.51-41.5Q-1.51-42.09-1.12-42.43-0.73-42.77-0.24-43.04 0.24-43.31 0.71-43.6 1.17-43.9 1.32-44.43L1.32-44.43Q1.71-44.34 2.1-44.31 2.49-44.29 2.88-44.09L2.88-44.09Q2.93-44.14 2.93-44.24L2.93-44.24Q2.93-44.38 2.47-44.51 2-44.63 1.86-44.82L1.86-44.82Q2.25-44.92 2.44-44.92L2.44-44.92Q3.42-44.92 4.32-44.43 5.22-43.95 6.05-43.41L6.05-43.41Q6.15-42.97 6.1-42.5 6.05-42.04 6.4-41.65L6.4-41.65Q6.35-41.41 6.37-41.21 6.4-41.02 6.4-40.82L6.4-40.82Q6.4-40.58 6.32-40.41 6.25-40.23 6.05-40.23L6.05-40.23Q6.4-39.65 6.52-38.82 6.64-37.99 6.76-37.11 6.88-36.23 7.08-35.4 7.28-34.57 7.81-33.94L7.81-33.94Q7.71-33.64 7.69-33.35 7.67-33.06 7.67-32.71L7.67-32.71Q7.67-31.15 8.06-29.64 8.45-28.13 8.45-26.56L8.45-26.56Q8.45-25.63 8.15-24.85L8.15-24.85Q8.15-24.41 8.45-24.15 8.74-23.88 8.84-23.44L8.84-23.44Q8.59-22.85 8.59-22.31L8.59-22.31Q8.59-21.19 9.03-20.19 9.47-19.19 9.47-18.12L9.47-18.12Q9.47-17.77 9.38-17.48 9.28-17.19 9.18-16.94L9.18-16.94Q9.62-16.5 9.64-15.82 9.67-15.14 10.06-14.7L10.06-14.7Q10.01-14.45 9.99-14.21 9.96-13.96 9.72-13.82L9.72-13.82Q9.96-13.48 9.99-12.92 10.01-12.35 10.4-12.26L10.4-12.26Q10.3-12.01 10.25-11.82 10.21-11.62 10.21-11.38L10.21-11.38Q10.21-10.84 10.35-10.4L10.35-10.4 10.64-9.52Q10.79-9.08 10.86-8.59 10.94-8.11 10.74-7.52L10.74-7.52Q10.94-7.23 11.06-6.84 11.18-6.45 11.28-6.03 11.38-5.62 11.57-5.3 11.77-4.98 12.16-4.88L12.16-4.88Q12.21-4.59 11.94-4.59 11.67-4.59 11.67-4.35L11.67-4.35Q11.67-3.96 11.96-3.39 12.26-2.83 12.5-2.59L12.5-2.59Q12.45-2.39 12.45-2.2L12.45-2.2 12.45-1.76Q12.45-1.07 12.65-0.37 12.84 0.34 13.01 1.05 13.18 1.76 13.28 2.44 13.38 3.13 13.18 3.71L13.18 3.71Q13.57 4.39 13.87 5.18 14.16 5.96 14.79 6.49L14.79 6.49Q14.79 7.32 15.14 8.08 15.48 8.84 16.02 9.52L16.02 9.52Q16.5 9.52 16.75 9.2 16.99 8.89 17.14 8.5 17.29 8.11 17.48 7.76 17.68 7.42 18.12 7.37L18.12 7.37Q18.16 6.88 18.38 6.57 18.6 6.25 18.82 5.91 19.04 5.57 19.21 5.18 19.38 4.79 19.34 4.2L19.34 4.2 19.87 4.05Q20.12 2.73 20.63 1.68 21.14 0.63 21.78-0.49L21.78-0.49 21.78-0.73Q21.78-1.22 21.92-1.56 22.07-1.9 21.97-2.44L21.97-2.44Q22.31-2.54 22.46-2.83 22.61-3.13 22.71-3.44 22.8-3.76 22.92-4.08 23.05-4.39 23.34-4.54L23.34-4.54 23.34-4.93Q23.29-5.37 23.41-5.79 23.54-6.2 23.34-6.64L23.34-6.64Q23.73-6.79 23.93-7.13 24.12-7.47 24.24-7.86 24.37-8.25 24.39-8.69 24.41-9.13 24.41-9.47L24.41-9.47Q24.76-9.91 24.9-10.52 25.05-11.13 25.15-11.77 25.24-12.4 25.42-12.99 25.59-13.57 25.98-14.01L25.98-14.01Q25.88-14.26 25.88-14.45L25.88-14.45 25.88-14.89Q25.88-15.82 26.17-16.58 26.46-17.33 26.71-18.21L26.71-18.21Q27.34-20.41 27.61-22.73 27.88-25.05 28.42-27.29L28.42-27.29Q28.47-27.54 28.61-28.08 28.76-28.61 28.91-29.17 29.05-29.74 29.17-30.2 29.3-30.66 29.3-30.81L29.3-30.81Q29.3-31.2 29.13-31.35 28.96-31.49 28.96-31.84L28.96-31.84Q29.25-32.28 29.35-32.96 29.44-33.64 29.49-34.4 29.54-35.16 29.52-35.86 29.49-36.57 29.49-37.11L29.49-37.11Q29.49-37.65 29.74-38.48 29.98-39.31 30.08-39.94L30.08-39.94Q30.32-41.6 30.4-43.24 30.47-44.87 30.57-46.53L30.57-46.53Q30.91-46.73 31.05-47.05 31.2-47.36 31.2-47.71L31.2-47.71Q31.2-48.24 31.08-48.73 30.96-49.22 30.96-49.76L30.96-49.76Q30.96-50 31.01-50.27 31.05-50.54 31.25-50.73L31.25-50.73Q31.2-51.07 31.18-51.42 31.15-51.76 30.91-52L30.91-52Q31.15-52.64 31.15-53.27L31.15-53.27Q31.15-53.86 31.03-54.44 30.91-55.03 30.91-55.66L30.91-55.66Q30.91-56.88 31.93-57.42L31.93-57.42 32.62-57.42Q33.11-57.42 33.59-57.47 34.08-57.52 34.62-57.76L34.62-57.76Q35.25-57.08 35.94-56.27 36.62-55.47 37.11-54.54 37.6-53.61 37.84-52.64 38.09-51.66 37.89-50.59L37.89-50.59Q38.09-50.2 38.13-49.8 38.18-49.41 38.43-49.02ZM28.27-22.22L28.47-22.41Q28.27-22.46 28.2-22.58 28.13-22.71 27.88-22.75L27.88-22.75 27.88-22.22 28.27-22.22ZM69.48-31.05L69.48-31.05 69.48-30.86Q69.14-30.76 69.14-30.37L69.14-30.37Q68.6-30.13 68.02-30 67.43-29.88 66.89-29.64L66.89-29.64Q66.35-29.69 65.79-29.71 65.23-29.74 64.69-29.74L64.69-29.74Q63.23-29.74 61.77-29.64 60.3-29.54 58.84-29.64L58.84-29.64Q58.15-29.25 57.35-29.03 56.54-28.81 55.81-28.81L55.81-28.81Q55.22-28.81 54.78-28.96L54.78-28.96Q53.61-28.37 52.22-27.98 50.83-27.59 49.41-27.22 48-26.86 46.7-26.39 45.41-25.93 44.43-25.1L44.43-25.1Q44.33-24.41 44.28-23.75 44.24-23.1 44.24-22.46L44.24-22.46Q44.24-21.78 44.31-21.19 44.38-20.61 44.63-20.02L44.63-20.02Q44.87-19.92 45.19-19.87 45.51-19.82 45.75-19.82L45.75-19.82Q45.99-19.82 46.24-19.9 46.48-19.97 46.58-20.21L46.58-20.21Q47.31-20.31 48.04-20.29 48.78-20.26 49.51-20.26L49.51-20.26Q50.24-20.26 50.95-20.31 51.66-20.36 52.34-20.56L52.34-20.56Q53.12-20.75 53.88-20.8 54.64-20.85 55.37-20.9 56.1-20.95 56.88-21.07 57.66-21.19 58.49-21.58L58.49-21.58Q59.13-21.34 59.79-21.34 60.45-21.34 61.08-21.24L61.08-21.24Q61.42-21 61.64-20.7 61.86-20.41 61.86-20.02L61.86-20.02Q61.86-19.34 61.37-18.65 60.89-17.97 60.59-17.38L60.59-17.38 60.06-17.38Q58.88-17.38 57.79-17.07 56.69-16.75 55.59-16.33 54.49-15.92 53.39-15.6 52.29-15.28 51.12-15.28L51.12-15.28Q50.93-15.28 50.9-15.06 50.88-14.84 50.78-14.75L50.78-14.75Q50.53-14.79 50.05-14.79L50.05-14.79Q48.92-14.79 47.9-14.55 46.87-14.31 45.8-14.31L45.8-14.31Q45.51-14.31 45.21-14.33 44.92-14.36 44.63-14.4L44.63-14.4Q44.38-14.01 43.99-13.89 43.6-13.77 43.26-13.48L43.26-13.48Q43.11-13.04 43.09-12.4 43.06-11.77 43.04-11.11 43.02-10.45 42.92-9.86 42.82-9.28 42.53-8.94L42.53-8.94Q42.58-8.69 42.92-8.76 43.26-8.84 43.26-8.45L43.26-8.45Q43.26-8.01 43.16-7.52 43.06-7.03 43.06-6.54L43.06-6.54Q43.06-5.62 43.28-4.52 43.5-3.42 43.97-2.49 44.43-1.56 45.21-0.95 45.99-0.34 47.17-0.34L47.17-0.34Q47.95-0.34 48.63-0.63 49.31-0.93 49.75-1.61L49.75-1.61 50-1.66Q50.19-1.66 50.36-1.61 50.53-1.56 50.73-1.56L50.73-1.56Q51.02-1.56 51.49-1.93 51.95-2.29 52.51-2.78 53.07-3.27 53.66-3.74 54.25-4.2 54.78-4.39L54.78-4.39Q55.12-5.08 55.44-5.76 55.76-6.45 56.39-6.84L56.39-6.84 56.39-8.25Q56.88-8.79 57.44-9.23 58.01-9.67 58.3-10.35L58.3-10.35Q58.54-10.25 58.76-10.21 58.98-10.16 59.23-10.16L59.23-10.16Q59.47-10.16 59.74-10.21 60.01-10.25 60.25-10.35L60.25-10.35Q60.64-9.81 60.86-9.16 61.08-8.5 61.42-7.91L61.42-7.91Q60.98-7.03 60.4-5.81 59.81-4.59 59.13-3.37 58.44-2.15 57.69-1.05 56.93 0.05 56.2 0.63L56.2 0.63Q56.05 0.78 55.56 0.98L55.56 0.98Q55.03 1.37 54.59 1.73 54.15 2.1 53.76 2.59L53.76 2.59Q52.34 3.03 51.05 3.76 49.75 4.49 48.48 5.18L48.48 5.18Q47.9 5.03 47.21 5.03L47.21 5.03Q46.63 5.03 46.04 5.1 45.46 5.18 44.77 5.18L44.77 5.18Q44.58 4.93 44.21 4.86 43.85 4.79 43.94 4.35L43.94 4.35Q42.28 4.25 41.26 3.44 40.23 2.64 39.52 1.46 38.82 0.29 38.38-1.07 37.94-2.44 37.45-3.71L37.45-3.71 37.45-3.86Q37.45-4.1 37.64-4.15 37.84-4.2 37.84-4.44L37.84-4.44Q37.84-4.54 37.79-4.59L37.79-4.59Q37.64-5.13 37.55-5.52 37.45-5.91 37.45-6.45L37.45-6.45Q37.45-7.23 37.55-7.98 37.64-8.74 37.64-9.52L37.64-9.52Q37.64-10.3 37.45-10.89L37.45-10.89Q37.64-11.13 37.77-11.55 37.89-11.96 37.94-12.4 37.99-12.84 38.01-13.28 38.03-13.72 38.13-14.06L38.13-14.06Q37.94-14.6 37.79-15.01 37.64-15.43 37.64-16.02L37.64-16.02 37.64-16.36Q38.13-17.19 38.47-18.07 38.82-18.95 39.21-19.87L39.21-19.87 39.21-20.02Q39.21-21.44 39.11-22.85 39.01-24.27 39.01-25.68L39.01-25.68 39.01-26.61Q39.01-27.1 39.06-27.54L39.06-27.54Q39.45-27.73 39.65-28.08 39.84-28.42 40.23-28.61L40.23-28.61 41.84-28.61 42.14-29.1Q42.28-29.35 42.33-29.64L42.33-29.64Q42.87-29.79 43.38-30.05 43.89-30.32 44.33-30.62L44.33-30.62Q45.02-31.01 45.58-31.32 46.14-31.64 46.7-31.86 47.26-32.08 47.9-32.23 48.53-32.37 49.36-32.47L49.36-32.47Q49.75-32.47 49.88-32.62 50-32.76 50.24-32.96L50.24-32.96Q50.83-32.86 51.41-32.79 52-32.71 52.59-32.71L52.59-32.71Q53.76-32.71 54.78-33.15L54.78-33.15Q56.25-33.15 57.69-33.2 59.13-33.25 60.59-33.25L60.59-33.25Q61.86-33.25 63.13-33.15 64.4-33.06 65.62-32.81L65.62-32.81Q66.06-32.96 66.6-32.96L66.6-32.96Q67.19-32.96 67.8-32.84 68.41-32.71 68.99-32.81L68.99-32.81Q69.04-32.28 69.26-31.91 69.48-31.54 69.48-31.05ZM93.75-12.55L93.75-12.55Q93.75-12.01 93.35-11.74 92.96-11.47 92.96-11.04L92.96-11.04Q92.96-10.84 93.16-10.55L93.16-10.55Q92.48-10.55 92.23-10.11 91.99-9.67 91.74-9.13L91.74-9.13 91.11-9.13Q90.86-9.13 90.72-9.03 90.57-8.94 90.45-8.76 90.33-8.59 90.13-8.25L90.13-8.25Q89.2-8.06 88.35-7.64 87.5-7.23 86.69-6.76 85.88-6.3 85.05-5.83 84.22-5.37 83.34-5.08L83.34-5.08Q82.91-4.35 82.08-3.91L82.08-3.91 81.93-3.91Q81.68-3.86 81.51-3.98 81.34-4.1 81.1-4.1L81.1-4.1Q80.95-4.1 80.9-4.05L80.9-4.05Q79.44-3.08 77.63-3.08L77.63-3.08Q77.14-3.08 76.7-3.15 76.26-3.22 75.78-3.22L75.78-3.22Q75.63-3.22 75.58-3.13L75.58-3.13 75.48-2.93Q75.43-2.83 75.36-2.73 75.29-2.64 75-2.64L75-2.64Q74.46-2.64 73.92-2.78 73.38-2.93 72.8-2.83L72.8-2.83Q71.67-3.47 71.04-4.05 70.41-4.64 69.87-5.81L69.87-5.81Q69.62-6.35 69.21-6.84 68.79-7.32 68.6-7.91L68.6-7.91Q68.55-8.11 68.45-8.62 68.35-9.13 68.26-9.72 68.16-10.3 68.09-10.84 68.01-11.38 68.01-11.57L68.01-11.57Q68.01-12.16 68.09-12.72 68.16-13.28 68.26-13.87L68.26-13.87Q68.55-15.72 68.67-17.6 68.79-19.48 69.48-21.24L69.48-21.24Q69.38-21.78 69.38-22.27L69.38-22.27 69.38-23.34Q69.38-24.27 69.14-24.9L69.14-24.9Q69.53-25.54 69.53-26.32L69.53-26.32Q69.53-27.2 68.79-27.34L68.79-27.34 68.79-27.49Q68.79-28.52 68.11-29.1L68.11-29.1Q68.11-30.81 68.96-31.67 69.82-32.52 71.24-33.15L71.24-33.15Q71.43-33.45 71.38-33.64L71.38-33.64Q71.72-33.54 72.02-33.45 72.31-33.35 72.6-33.35L72.6-33.35Q73.09-33.35 73.48-33.5L73.48-33.5Q73.63-32.91 74.24-32.79 74.85-32.67 75.24-32.47L75.24-32.47 75.24-31.84Q75.24-30.32 75.97-28.96L75.97-28.96Q75.78-28.56 75.73-28.13 75.68-27.69 75.68-27.29L75.68-27.29Q75.68-26.71 75.73-26.12 75.78-25.54 75.78-25L75.78-25Q75.78-24.41 75.65-23.83 75.53-23.24 75.09-22.8L75.09-22.8Q75.04-22.17 75.02-21.36 75-20.56 74.92-19.73 74.85-18.9 74.65-18.12 74.46-17.33 74.07-16.85L74.07-16.85Q74.02-16.11 73.99-15.36 73.97-14.6 73.97-13.92L73.97-13.92Q73.97-12.84 74.09-11.38 74.21-9.91 74.75-8.94L74.75-8.94Q75-8.54 75.7-8.35 76.41-8.15 76.85-8.15L76.85-8.15Q77.39-8.15 77.95-8.33 78.51-8.5 78.75-8.94L78.75-8.94Q79.05-8.89 79.15-8.64 79.24-8.4 79.49-8.25L79.49-8.25Q82.27-9.42 85.05-10.5 87.84-11.57 90.52-12.99L90.52-12.99Q90.91-12.79 91.35-12.79L91.35-12.79Q91.84-12.79 92.33-12.89 92.82-12.99 93.31-12.99L93.31-12.99 93.65-12.99Q93.75-12.7 93.75-12.55ZM103.95-6.69L103.95-6.69Q103.7-6.3 103.36-5.98 103.02-5.66 102.73-5.32L102.73-5.32Q102.39-5.18 101.97-5.18 101.56-5.18 101.19-5.2 100.82-5.22 100.51-5.2 100.19-5.18 99.99-4.98L99.99-4.98Q99.6-5.08 99.41-5.35 99.21-5.62 98.72-5.66L98.72-5.66Q98.53-5.71 98.33-5.66L98.33-5.66Q97.6-6.49 96.99-7.42 96.38-8.35 95.84-9.18L95.84-9.18Q95.79-10.99 95.55-12.84L95.55-12.84Q95.5-13.28 95.4-13.72 95.31-14.16 95.26-14.55L95.26-14.55Q95.26-15.04 95.33-15.5 95.4-15.97 95.45-16.36L95.45-16.36Q95.65-17.77 95.89-19.14 96.14-20.51 96.33-21.92L96.33-21.92Q96.53-23.19 96.53-24.58 96.53-25.98 96.09-27.2L96.09-27.2 96.04-27.44Q96.14-27.83 96.26-28.1 96.38-28.37 96.43-28.71L96.43-28.71Q96.53-29.25 96.18-29.49L96.18-29.49Q96.33-29.88 96.67-30 97.01-30.13 97.06-30.57L97.06-30.57Q97.11-30.76 97.06-30.96L97.06-30.96Q97.45-31.1 97.87-31.23 98.28-31.35 98.67-31.25L98.67-31.25Q99.31-31.15 99.8-30.83 100.29-30.52 100.72-30.13L100.72-30.13Q101.51-27.78 101.36-25.17 101.21-22.56 100.87-19.92 100.53-17.29 100.43-14.77 100.33-12.26 101.21-10.11L101.21-10.11 101.31-10.06Q101.56-10.01 101.7-10.23 101.85-10.45 102.09-10.4L102.09-10.4Q102.29-10.3 102.34-10.3L102.34-10.3Q102.53-9.33 102.97-8.45 103.41-7.57 103.95-6.69ZM135.39-34.77L135.39-34.77Q135.39-33.94 135.32-33.18 135.24-32.42 135-31.59L135-31.59Q134.56-31.25 134.22-30.76L134.22-30.76 133.53-29.83Q133.19-29.39 132.8-28.98 132.41-28.56 131.83-28.32L131.83-28.32Q131.34-26.17 130.63-24.19 129.92-22.22 129.58-20.07L129.58-20.07Q128.99-18.99 128.65-17.72 128.31-16.46 127.94-15.16 127.58-13.87 127.14-12.7 126.7-11.52 125.92-10.6L125.92-10.6Q125.53-9.42 125.14-8.08 124.75-6.74 123.82-5.86L123.82-5.86Q123.87-5.76 123.87-5.57L123.87-5.57Q123.87-4.98 123.57-4.47 123.28-3.96 123.28-3.42L123.28-3.42Q122.5-2.83 121.79-2.05 121.08-1.27 120.35-0.49 119.62 0.29 118.79 0.88 117.96 1.46 116.98 1.66L116.98 1.66Q116.3 1.17 115.71 0.56 115.13-0.05 114.35-0.44L114.35-0.44Q113.95-2.64 113.88-4.76 113.81-6.88 113.52-8.98L113.52-8.98Q113.32-10.21 112.91-11.33 112.49-12.45 112.49-13.62L112.49-13.62Q112.49-13.87 112.51-14.14 112.54-14.4 112.59-14.65L112.59-14.65Q112.1-15.19 111.95-15.99 111.81-16.8 111.71-17.65 111.61-18.51 111.44-19.34 111.27-20.17 110.83-20.75L110.83-20.75Q111.03-20.95 111.03-21.29L111.03-21.29Q111.03-21.53 110.95-21.78 110.88-22.02 110.88-22.27L110.88-22.27Q110.88-22.46 111.03-22.71L111.03-22.71Q110.63-23.19 110.51-23.61 110.39-24.02 110.34-24.44 110.29-24.85 110.27-25.29 110.24-25.73 110.15-26.22L110.15-26.22Q110.05-26.56 109.83-26.73 109.61-26.9 109.61-27L109.61-27Q109.61-27.25 109.8-27.39L109.8-27.39Q109.12-28.37 108.68-29.44 108.24-30.52 107.7-31.59L107.7-31.59Q107.75-32.13 108.1-32.42 108.44-32.71 108.58-33.2L108.58-33.2 110.15-33.2Q112.29-29 113.44-24.49 114.59-19.97 115.47-15.38L115.47-15.38Q115.71-14.06 115.93-12.74 116.15-11.43 116.45-10.06L116.45-10.06Q116.54-9.77 116.74-9.42 116.93-9.08 116.93-8.74L116.93-8.74Q116.93-8.45 116.79-8.15L116.79-8.15Q117.08-7.96 117.25-7.62 117.42-7.28 117.54-6.91 117.67-6.54 117.76-6.18 117.86-5.81 118.06-5.52L118.06-5.52Q118.64-5.57 119.08-6.05 119.52-6.54 119.89-7.2 120.25-7.86 120.57-8.52 120.89-9.18 121.33-9.57L121.33-9.57Q121.38-10.11 121.55-10.62 121.72-11.13 121.72-11.67L121.72-11.67Q122.21-12.5 122.6-13.23 122.99-13.96 123.09-14.99L123.09-14.99Q123.33-15.19 123.38-15.31 123.43-15.43 123.82-15.33L123.82-15.33Q123.82-16.65 124.23-17.9 124.65-19.14 125.38-20.26L125.38-20.26Q125.48-21.39 125.84-22.53 126.21-23.68 126.7-24.8L126.7-24.8Q126.85-25.15 127.09-25.61 127.33-26.07 127.33-26.46L127.33-26.46Q127.33-26.66 127.26-26.83 127.19-27 127.19-27.2L127.19-27.2Q127.19-27.59 127.48-27.88 127.77-28.17 128.02-28.47L128.02-28.47Q128.02-29.59 128.26-30.71 128.51-31.84 129.24-32.67L129.24-32.67Q129.48-34.33 129.87-35.91 130.26-37.5 131-38.96L131-38.96 132.75-38.96Q132.75-39.89 133.58-39.89L133.58-39.89Q134.07-39.89 134.66-39.65L134.66-39.65Q135.05-38.57 135.22-37.23 135.39-35.89 135.39-34.77ZM166.2-31.05L166.2-31.05 166.2-30.86Q165.86-30.76 165.86-30.37L165.86-30.37Q165.32-30.13 164.73-30 164.15-29.88 163.61-29.64L163.61-29.64Q163.07-29.69 162.51-29.71 161.95-29.74 161.41-29.74L161.41-29.74Q159.95-29.74 158.48-29.64 157.02-29.54 155.55-29.64L155.55-29.64Q154.87-29.25 154.06-29.03 153.26-28.81 152.53-28.81L152.53-28.81Q151.94-28.81 151.5-28.96L151.5-28.96Q150.33-28.37 148.94-27.98 147.55-27.59 146.13-27.22 144.71-26.86 143.42-26.39 142.13-25.93 141.15-25.1L141.15-25.1Q141.05-24.41 141-23.75 140.95-23.1 140.95-22.46L140.95-22.46Q140.95-21.78 141.03-21.19 141.1-20.61 141.34-20.02L141.34-20.02Q141.59-19.92 141.91-19.87 142.22-19.82 142.47-19.82L142.47-19.82Q142.71-19.82 142.96-19.9 143.2-19.97 143.3-20.21L143.3-20.21Q144.03-20.31 144.76-20.29 145.5-20.26 146.23-20.26L146.23-20.26Q146.96-20.26 147.67-20.31 148.38-20.36 149.06-20.56L149.06-20.56Q149.84-20.75 150.6-20.8 151.35-20.85 152.09-20.9 152.82-20.95 153.6-21.07 154.38-21.19 155.21-21.58L155.21-21.58Q155.85-21.34 156.51-21.34 157.17-21.34 157.8-21.24L157.8-21.24Q158.14-21 158.36-20.7 158.58-20.41 158.58-20.02L158.58-20.02Q158.58-19.34 158.09-18.65 157.6-17.97 157.31-17.38L157.31-17.38 156.77-17.38Q155.6-17.38 154.5-17.07 153.41-16.75 152.31-16.33 151.21-15.92 150.11-15.6 149.01-15.28 147.84-15.28L147.84-15.28Q147.64-15.28 147.62-15.06 147.59-14.84 147.5-14.75L147.5-14.75Q147.25-14.79 146.76-14.79L146.76-14.79Q145.64-14.79 144.62-14.55 143.59-14.31 142.52-14.31L142.52-14.31Q142.22-14.31 141.93-14.33 141.64-14.36 141.34-14.4L141.34-14.4Q141.1-14.01 140.71-13.89 140.32-13.77 139.98-13.48L139.98-13.48Q139.83-13.04 139.81-12.4 139.78-11.77 139.76-11.11 139.73-10.45 139.64-9.86 139.54-9.28 139.25-8.94L139.25-8.94Q139.29-8.69 139.64-8.76 139.98-8.84 139.98-8.45L139.98-8.45Q139.98-8.01 139.88-7.52 139.78-7.03 139.78-6.54L139.78-6.54Q139.78-5.62 140-4.52 140.22-3.42 140.69-2.49 141.15-1.56 141.93-0.95 142.71-0.34 143.88-0.34L143.88-0.34Q144.67-0.34 145.35-0.63 146.03-0.93 146.47-1.61L146.47-1.61 146.72-1.66Q146.91-1.66 147.08-1.61 147.25-1.56 147.45-1.56L147.45-1.56Q147.74-1.56 148.21-1.93 148.67-2.29 149.23-2.78 149.79-3.27 150.38-3.74 150.96-4.2 151.5-4.39L151.5-4.39Q151.84-5.08 152.16-5.76 152.48-6.45 153.11-6.84L153.11-6.84 153.11-8.25Q153.6-8.79 154.16-9.23 154.72-9.67 155.02-10.35L155.02-10.35Q155.26-10.25 155.48-10.21 155.7-10.16 155.94-10.16L155.94-10.16Q156.19-10.16 156.46-10.21 156.73-10.25 156.97-10.35L156.97-10.35Q157.36-9.81 157.58-9.16 157.8-8.5 158.14-7.91L158.14-7.91Q157.7-7.03 157.12-5.81 156.53-4.59 155.85-3.37 155.16-2.15 154.41-1.05 153.65 0.05 152.92 0.63L152.92 0.63Q152.77 0.78 152.28 0.98L152.28 0.98Q151.75 1.37 151.31 1.73 150.87 2.1 150.48 2.59L150.48 2.59Q149.06 3.03 147.77 3.76 146.47 4.49 145.2 5.18L145.2 5.18Q144.62 5.03 143.93 5.03L143.93 5.03Q143.35 5.03 142.76 5.1 142.18 5.18 141.49 5.18L141.49 5.18Q141.3 4.93 140.93 4.86 140.56 4.79 140.66 4.35L140.66 4.35Q139 4.25 137.98 3.44 136.95 2.64 136.24 1.46 135.53 0.29 135.09-1.07 134.66-2.44 134.17-3.71L134.17-3.71 134.17-3.86Q134.17-4.1 134.36-4.15 134.56-4.2 134.56-4.44L134.56-4.44Q134.56-4.54 134.51-4.59L134.51-4.59Q134.36-5.13 134.26-5.52 134.17-5.91 134.17-6.45L134.17-6.45Q134.17-7.23 134.26-7.98 134.36-8.74 134.36-9.52L134.36-9.52Q134.36-10.3 134.17-10.89L134.17-10.89Q134.36-11.13 134.48-11.55 134.61-11.96 134.66-12.4 134.7-12.84 134.73-13.28 134.75-13.72 134.85-14.06L134.85-14.06Q134.66-14.6 134.51-15.01 134.36-15.43 134.36-16.02L134.36-16.02 134.36-16.36Q134.85-17.19 135.19-18.07 135.53-18.95 135.93-19.87L135.93-19.87 135.93-20.02Q135.93-21.44 135.83-22.85 135.73-24.27 135.73-25.68L135.73-25.68 135.73-26.61Q135.73-27.1 135.78-27.54L135.78-27.54Q136.17-27.73 136.36-28.08 136.56-28.42 136.95-28.61L136.95-28.61 138.56-28.61 138.85-29.1Q139-29.35 139.05-29.64L139.05-29.64Q139.59-29.79 140.1-30.05 140.61-30.32 141.05-30.62L141.05-30.62Q141.74-31.01 142.3-31.32 142.86-31.64 143.42-31.86 143.98-32.08 144.62-32.23 145.25-32.37 146.08-32.47L146.08-32.47Q146.47-32.47 146.59-32.62 146.72-32.76 146.96-32.96L146.96-32.96Q147.55-32.86 148.13-32.79 148.72-32.71 149.3-32.71L149.3-32.71Q150.48-32.71 151.5-33.15L151.5-33.15Q152.97-33.15 154.41-33.2 155.85-33.25 157.31-33.25L157.31-33.25Q158.58-33.25 159.85-33.15 161.12-33.06 162.34-32.81L162.34-32.81Q162.78-32.96 163.32-32.96L163.32-32.96Q163.9-32.96 164.51-32.84 165.12-32.71 165.71-32.81L165.71-32.81Q165.76-32.28 165.98-31.91 166.2-31.54 166.2-31.05ZM226.3-8.5L226.3-8.5Q226.21-7.76 225.79-7.37 225.38-6.98 224.84-6.64L224.84-6.64Q224.59-6.69 224.37-6.71 224.15-6.74 223.91-6.74L223.91-6.74Q222.4-6.79 221.05-6.35 219.71-5.91 218.3-5.71L218.3-5.71Q217.81-5.62 217.39-5.64 216.98-5.66 216.54-5.57L216.54-5.57Q214.98-5.32 213.22-5.18 211.46-5.03 209.7-4.81 207.94-4.59 206.26-4.27 204.57-3.96 203.11-3.37L203.11-3.37Q202.96-3.47 202.82-3.59 202.67-3.71 202.48-3.71L202.48-3.71Q201.99-3.71 201.55-3.56 201.11-3.42 200.67-3.47L200.67-3.47Q200.18-3.17 199.62-3.05 199.06-2.93 198.5-2.86 197.93-2.78 197.4-2.64 196.86-2.49 196.37-2.1L196.37-2.1Q195.98-2.29 195.42-2.32 194.86-2.34 194.66-2.69L194.66-2.69Q193.54-2.15 192.29-2 191.05-1.86 189.78-1.9L189.78-1.9Q188.95-1.95 187.88-2.15 186.8-2.34 185.73-2.71 184.65-3.08 183.73-3.59 182.8-4.1 182.31-4.83L182.31-4.83Q181.97-5.32 181.82-5.91 181.67-6.49 181.14-6.79L181.14-6.79Q181.28-7.91 181.48-8.98 181.67-10.06 181.87-11.18L181.87-11.18Q182.85-12.01 183.73-12.94 184.6-13.87 185.39-14.89L185.39-14.89Q186.31-15.33 187.12-15.97 187.92-16.6 188.73-17.26 189.54-17.92 190.34-18.55 191.15-19.19 192.07-19.68L192.07-19.68Q192.22-20.02 192.49-20.24 192.76-20.46 193.05-20.68 193.34-20.9 193.59-21.17 193.83-21.44 193.93-21.83L193.93-21.83Q195.64-22.85 196.91-24.41 198.18-25.98 198.57-27.93L198.57-27.93Q197.74-28.61 196.69-28.83 195.64-29.05 194.52-29.15L194.52-29.15Q193.54-29.2 192.49-29.15 191.44-29.1 190.37-29.2L190.37-29.2Q189.29-28.86 188.14-28.76 187-28.66 185.87-28.59 184.75-28.52 183.65-28.3 182.55-28.08 181.53-27.49L181.53-27.49Q181.33-27.49 181.16-27.54 180.99-27.59 180.8-27.59L180.8-27.59Q179.23-27.64 177.87-26.98 176.5-26.32 175.18-25.68L175.18-25.68Q175.08-25.49 175.08-25.39L175.08-25.39Q175.08-25.1 175.2-24.83 175.33-24.56 175.33-24.27L175.33-24.27Q175.28-24.22 175.28-24.17 175.28-24.12 175.23-24.07L175.23-24.07Q175.18-23.83 175.11-23.63 175.03-23.44 174.94-23.19L174.94-23.19Q174.4-21.63 174.35-20.12L174.35-20.12Q174.3-18.85 174.35-17.63 174.4-16.41 174.35-15.14L174.35-15.14Q174.25-13.57 173.86-12.21L173.86-12.21Q174.11-11.04 174.3-9.74 174.5-8.45 174.79-7.18 175.08-5.91 175.5-4.71 175.91-3.52 176.6-2.44L176.6-2.44Q176.55-2.34 176.65-2.29 176.74-2.25 176.84-2.25L176.84-2.25 177.23-2.25Q177.48-2.25 177.43-2.05L177.43-2.05Q177.52-1.9 177.57-1.78 177.62-1.66 177.77-1.56L177.77-1.56Q177.87-1.42 177.77-1.17L177.77-1.17Q177.72-0.2 177.28 0.63 176.84 1.46 176.74 2.44L176.74 2.44Q176.16 2.59 175.67 2.59L175.67 2.59Q174.84 2.54 174.2 2.12 173.57 1.71 173.03 1.12 172.49 0.54 172.01-0.07 171.52-0.68 170.93-1.12L170.93-1.12Q170.59-2.49 170.27-4.15 169.96-5.81 169.22-6.98L169.22-6.98Q169.42-7.42 169.42-8.06L169.42-8.06Q169.47-9.03 169.25-9.99 169.03-10.94 169.13-11.91L169.13-11.91Q169.13-12.45 169.25-12.99 169.37-13.53 169.42-14.06L169.42-14.06Q169.47-14.89 169.25-15.67 169.03-16.46 169.08-17.29L169.08-17.29Q169.13-17.68 169.25-18.04 169.37-18.41 169.61-18.7L169.61-18.7Q169.37-19.29 169.47-19.82L169.47-19.82Q169.52-20.65 169.66-21.39 169.81-22.12 169.86-22.85L169.86-22.85Q169.86-23.24 169.81-23.61 169.76-23.97 169.66-24.32L169.66-24.32 169.22-24.46Q168.93-24.46 168.66-24.32 168.39-24.17 168.2-23.97 168-23.78 167.86-23.66 167.71-23.54 167.56-23.54L167.56-23.54Q167.47-23.54 167.34-23.56 167.22-23.58 167.12-23.58L167.12-23.58Q167.03-23.58 166.76-23.39 166.49-23.19 166.12-22.97 165.76-22.75 165.41-22.53 165.07-22.31 164.88-22.27L164.88-22.27Q164.34-22.36 164.02-22.63 163.71-22.9 163.44-23.17 163.17-23.44 162.88-23.66 162.58-23.88 162.14-23.83L162.14-23.83Q162-24.12 161.97-24.46 161.95-24.8 162-25.15L162-25.15 162-25.93Q162.34-26.56 162.9-26.98 163.46-27.39 164.1-27.69L164.1-27.69 165.37-28.27Q166-28.56 166.54-29L166.54-29 166.98-29Q167.86-28.96 168.52-29.35 169.17-29.74 169.76-30.25 170.35-30.76 170.96-31.3 171.57-31.84 172.3-32.13L172.3-32.13Q172.84-31.88 173.42-31.71 174.01-31.54 174.64-31.49L174.64-31.49Q175.28-31.49 175.96-31.69 176.65-31.88 177.04-32.42L177.04-32.42Q177.28-32.32 177.45-32.3 177.62-32.28 177.87-32.28L177.87-32.28Q178.6-32.23 179.33-32.5 180.06-32.76 180.75-33.15L180.75-33.15Q181.72-33.11 182.68-33.28 183.63-33.45 184.58-33.64 185.53-33.84 186.48-34.01 187.44-34.18 188.41-34.13L188.41-34.13Q190.02-34.08 191.59-34.42 193.15-34.77 194.76-34.67L194.76-34.67Q195.88-34.62 196.98-34.5 198.08-34.38 199.2-34.42L199.2-34.42Q199.84-34.13 200.35-33.91 200.86-33.69 201.65-33.79L201.65-33.79Q203.21-32.47 204.48-30.71L204.48-30.71 204.48-29.88Q204.43-28.76 204.09-27.69 203.74-26.61 203.28-25.56 202.82-24.51 202.28-23.51 201.74-22.51 201.25-21.53L201.25-21.53Q198.08-18.65 194.91-15.82 191.73-12.99 188.36-10.35L188.36-10.35Q188.27-9.86 188.1-9.47 187.92-9.08 187.88-8.64L187.88-8.64Q187.88-8.4 187.92-8.25L187.92-8.25Q188.27-8.15 188.53-7.89 188.8-7.62 188.71-7.18L188.71-7.18 189.15-7.18Q189.39-7.18 189.39-6.98L189.39-6.98 190.17-6.93Q192.03-6.84 193.88-7.03 195.74-7.23 197.62-7.47 199.5-7.71 201.35-7.93 203.21-8.15 205.06-8.2L205.06-8.2Q205.5-8.35 205.99-8.45 206.48-8.54 206.87-8.84L206.87-8.84 207.02-8.84Q207.36-8.84 207.53-8.64 207.7-8.45 208.04-8.4L208.04-8.4Q208.29-8.4 208.55-8.5 208.82-8.59 209.12-8.64L209.12-8.64Q209.8-8.84 210.56-8.89 211.31-8.94 212.05-9.03L212.05-9.03Q214.88-9.28 217.66-9.35 220.44-9.42 223.23-10.06L223.23-10.06Q223.47-9.72 223.91-9.59 224.35-9.47 224.84-9.35 225.33-9.23 225.74-9.08 226.16-8.94 226.3-8.5ZM238.26-33.59L238.26-33.59Q238.26-33.15 237.9-32.86 237.53-32.57 237.53-32.42L237.53-32.42Q237.53-32.13 237.63-32.01 237.73-31.88 237.73-31.74L237.73-31.74 237.73-31.49Q237.24-31.01 236.99-30.44 236.75-29.88 236.6-29.27 236.46-28.66 236.34-28.03 236.21-27.39 236.02-26.81L236.02-26.81Q235.77-26.22 235.38-25.81 234.99-25.39 234.75-24.85L234.75-24.85Q234.36-23.97 234.16-23.05 233.97-22.12 233.33-21.34L233.33-21.34 233.33-21.09Q233.28-20.75 233.53-20.51L233.53-20.51Q232.6-19.29 232.06-17.6 231.53-15.92 231.18-14.09 230.84-12.26 230.6-10.42 230.35-8.59 230.01-7.13L230.01-7.13Q230.26-6.05 230.77-5.1 231.28-4.15 231.77-3.13L231.77-3.13Q232.75-2.88 233.65-2.44 234.55-2 234.94-1.03L234.94-1.03Q234.85-0.05 234.31 0.49 233.77 1.03 232.99 1.61L232.99 1.61Q232.45 1.42 232.11 1.29 231.77 1.17 231.09 1.27L231.09 1.27Q230.16 0.54 229.35 0.1 228.55-0.34 227.91-1.42L227.91-1.42Q227.81-1.56 227.62-1.56L227.62-1.56 227.18-1.56Q226.94-2.15 226.59-2.81 226.25-3.47 225.91-4.17 225.57-4.88 225.32-5.59 225.08-6.3 225.08-6.88L225.08-6.88Q225.08-9.38 225.54-11.84 226.01-14.31 226.01-16.85L226.01-16.85 226.01-17.33Q225.03-17.09 224.08-16.65 223.13-16.21 222.15-15.97L222.15-15.97Q221.81-15.87 221.76-15.63 221.71-15.38 221.47-15.23L221.47-15.23Q220.98-15.19 220.54-15.16 220.1-15.14 219.71-15.14L219.71-15.14Q218.88-15.14 217.98-15.21 217.07-15.28 216.19-15.53 215.31-15.77 214.56-16.21 213.8-16.65 213.21-17.33L213.21-17.33Q213.12-17.29 212.97-17.24 212.82-17.19 212.68-17.19L212.68-17.19Q212.53-17.19 212.38-17.24 212.24-17.29 212.14-17.33L212.14-17.33Q211.75-17.87 211.51-18.51L211.51-18.51 211.02-19.78Q210.77-20.41 210.48-21 210.19-21.58 209.7-22.07L209.7-22.07Q209.55-22.95 209.55-23.78L209.55-23.78Q209.55-24.66 209.67-25.49 209.8-26.32 210.04-27.15L210.04-27.15Q209.85-27.73 209.77-28.37 209.7-29 209.7-29.64L209.7-29.64Q209.7-30.37 209.85-31.15 209.99-31.93 210.33-32.59 210.68-33.25 211.29-33.69 211.9-34.13 212.78-34.13L212.78-34.13Q213.75-34.13 214.58-33.62 215.41-33.11 216.19-32.57L216.19-32.57Q216.29-31.98 216.34-31.42 216.39-30.86 216.39-30.22L216.39-30.22Q216.39-29.05 216.27-27.86 216.14-26.66 216.14-25.44L216.14-25.44Q216.14-24.17 216.46-23.07 216.78-21.97 217.61-21L217.61-21 217.8-21Q218.2-21.04 218.49-20.85 218.78-20.65 219.17-20.65L219.17-20.65Q219.51-20.65 219.71-20.92 219.9-21.19 220.2-21.19L220.2-21.19Q220.49-21.19 220.64-21.09 220.78-21 220.88-21L220.88-21Q221.42-21 222.1-21.39 222.79-21.78 222.98-22.27L222.98-22.27Q223.18-22.12 223.47-22.12L223.47-22.12Q223.86-22.12 224.2-22.36 224.54-22.61 225.08-22.61L225.08-22.61Q225.37-22.61 225.3-22.97 225.23-23.34 225.47-23.44L225.47-23.44Q226.06-23.68 226.76-24.15 227.47-24.61 227.91-24.71L227.91-24.71Q228.16-25.34 228.52-25.9 228.89-26.46 229.28-26.95L229.28-26.95Q229.43-28.08 229.87-29.1 230.3-30.13 230.79-31.15 231.28-32.18 231.72-33.2 232.16-34.23 232.31-35.35L232.31-35.35Q232.84-35.89 233.16-36.52 233.48-37.16 233.72-37.79L233.72-37.79Q234.21-37.94 234.94-37.96 235.68-37.99 236.21-37.99L236.21-37.99 237.04-37.99Q237.19-37.7 237.43-37.45L237.43-37.45 237.92-36.96Q237.48-36.28 237.48-35.6L237.48-35.6Q237.48-35.06 237.73-34.55 237.97-34.03 238.26-33.59Z" opacity="1" transform="matrix(1,0,0,1,0,0)" fill="#31c48d" class="wordmark-text-0" data-fill-palette-color="primary" id="text-0"></path></svg></g></svg></g></svg></g></svg></g><g transform="matrix(1,0,0,1,90.01185534582113,0)"><svg viewBox="0 0 215.49628930835772 167.8448033231521" height="167.8448033231521" width="215.49628930835772"><g><svg xmlns="http://www.w3.org/2000/svg" xmlns:xlink="http://www.w3.org/1999/xlink" version="1.1" x="8" y="0" viewBox="4.999974727630615 4.99919319152832 89.99998474121094 75.72085571289062" enable-background="new 0 0 100 85.72" xml:space="preserve" height="167.8448033231521" width="199.49628930835772" class="icon-icon-0" data-fill-palette-color="accent" id="icon-0"><path d="M77.004 31.132c4.438 27.562-5.994 39.332-17.572 44.206-2.512-0.095-4.41-0.905-5.635-2.417-0.283-0.348-0.521-0.723-0.725-1.112 8.734-4.211 17.799-10.688 17.963-19.473 0.248-13.075-4.621 5.675-18.678 17.557-0.678-2.704-0.203-5.429-0.197-5.465l0.029-0.152-0.008-0.153c-1.025-10.399 1-10.399-8.621-19.261 0 0 4.811-5.064 15.951-5.064C70.653 39.797 72.973 35.381 77.004 31.132z" fill="#096a2e" data-fill-palette-color="accent"></path><path d="M23.665 58.226C19.48 40.757 33.853 71.085 58.475 77.922l0.158-1.28c-10.921-0.321-8.672-12.528-8.672-12.528-0.964-22.487-25.699-24.416-25.699-24.416-13.814-1.927-19.154-8.674-19.154-8.674C2.217 93.99 58.313 79.212 58.313 79.212l0.117-0.93C46.368 76.52 26.872 71.62 23.665 58.226z" fill="#096a2e" data-fill-palette-color="accent"></path><path d="M90.975 5c-8.15 2.817-16.076 12.044-21.242 19.204 0 0.001 0 0.001 0 0.002-6.564-1.342-16.857-2.208-28.436-2.208-19.824 0-35.895 2.534-35.895 5.659 0 1.299 2.779 2.494 7.441 3.449 2.016-1.704 14.068-3.013 28.641-3.013 9.598 0 18.096 0.568 23.36 1.443l-2.566 1.221c-4.98-0.689-12.289-1.125-20.437-1.125-12.426 0-22.897 1.014-26.144 2.397 7.625 1.549 28.333 4.741 51.256-0.337 1.852-0.226 3.242-0.58 4.205-0.897 0.121-0.029 0.248-0.057 0.365-0.085 0.123-0.03 0.248-0.061 0.367-0.091 0.145-0.037 0.279-0.074 0.418-0.111 0.125-0.034 0.252-0.068 0.373-0.103 0.131-0.037 0.256-0.074 0.381-0.111 0.125-0.037 0.246-0.074 0.363-0.112 0.115-0.036 0.229-0.071 0.338-0.108 0.133-0.045 0.26-0.089 0.385-0.134 0.086-0.03 0.176-0.062 0.26-0.092 0.191-0.073 0.371-0.145 0.543-0.218 0.074-0.032 0.145-0.064 0.215-0.095 0.105-0.048 0.211-0.096 0.311-0.146 0.068-0.034 0.135-0.068 0.199-0.102 0.094-0.05 0.186-0.1 0.27-0.151 0.055-0.031 0.111-0.063 0.162-0.095 0.105-0.066 0.203-0.133 0.293-0.2 0.023-0.017 0.047-0.031 0.066-0.048 0.107-0.082 0.199-0.166 0.283-0.249 0.027-0.027 0.051-0.055 0.076-0.083 0.053-0.059 0.102-0.119 0.143-0.178 0.021-0.03 0.041-0.062 0.059-0.093 0.037-0.061 0.064-0.121 0.088-0.182 0.012-0.028 0.025-0.055 0.033-0.084 0.025-0.087 0.043-0.177 0.043-0.266 0-0.087-0.018-0.175-0.043-0.262-0.008-0.027-0.018-0.053-0.029-0.078-0.023-0.063-0.053-0.125-0.09-0.188-0.016-0.028-0.031-0.055-0.049-0.082-0.053-0.076-0.113-0.153-0.186-0.229-0.008-0.009-0.014-0.018-0.021-0.026-0.08-0.083-0.176-0.165-0.279-0.246-0.035-0.028-0.072-0.054-0.111-0.082-0.076-0.057-0.16-0.113-0.248-0.17-0.045-0.028-0.088-0.056-0.137-0.084-0.109-0.065-0.227-0.13-0.35-0.195-0.031-0.016-0.057-0.031-0.088-0.047 0-0.001-0.002-0.001-0.004-0.001 5.305-4.718 11.754-9.786 11.754-9.786C102.124 4.691 90.975 5 90.975 5z" fill="#096a2e" data-fill-palette-color="accent"></path></svg></g></svg></g><g><rect width="45.99820520243905" height="10.952545281851583" y="155.89225804130052" x="305.50814465417886" fill="#096a2e" data-fill-palette-color="accent"></rect><rect width="45.99820520243905" height="10.952545281851583" y="155.89225804130052" x="44.01365014338208" fill="#096a2e" data-fill-palette-color="accent"></rect><rect width="45.99820520243905" height="10.952545281851583" y="133.98716747759735" x="305.50814465417886" fill="#096a2e" data-fill-palette-color="accent"></rect><rect width="45.99820520243905" height="10.952545281851583" y="133.98716747759735" x="44.01365014338208" fill="#096a2e" data-fill-palette-color="accent"></rect></g></svg></g><defs></defs></svg><rect width="307.4926997132358" height="247.2" fill="none" stroke="none" visibility="hidden"></rect></g></svg></g></svg>